<svg id="SvgjsSvg1000" xmlns="http://www.w3.org/2000/svg" version="1.1" xmlns:xlink="http://www.w3.org/1999/xlink" xmlns:svgjs="http://svgjs.com/svgjs" width="48" height="32" viewBox="0 0 48 32"><title>Прямоугольник, скругл. углы 4</title><desc>Created with Avocode.</desc><defs id="SvgjsDefs1001"></defs><path id="SvgjsPath1007" d="M136.452 152.452C137.051 151.853 138.021 151.853 138.62 152.452L153.5 167.332L165.28467 155.54733C165.33422000000002 155.47738999999999 165.39033 155.41066999999998 165.453 155.34799999999998L181.349 139.452C181.94799999999998 138.853 182.91799999999998 138.853 183.517 139.452C184.115 140.051 184.115 141.021 183.517 141.62L170.71827 154.41792C170.66824 154.48886000000002 170.61148 154.55651 170.548 154.62L154.652 170.51600000000002C154.60852999999997 170.55947000000003 154.5631 170.59979 154.516 170.63696000000002C154.21987 170.87062 153.8577 170.97955000000002 153.5 170.96375C153.08541 170.98206000000002 152.66481 170.83281 152.348 170.516L136.452 154.62C135.85399999999998 154.02100000000002 135.85399999999998 153.05100000000002 136.452 152.452Z " fill="#ffffff" fill-opacity="1" transform="matrix(1,0,0,1,-136,-139)"></path></svg>