<svg id="SvgjsSvg1008" xmlns="http://www.w3.org/2000/svg" version="1.1" xmlns:xlink="http://www.w3.org/1999/xlink" xmlns:svgjs="http://svgjs.com/svgjs" width="22" height="22" viewBox="0 0 22 22"><title>X</title><desc>Created with Avocode.</desc><defs id="SvgjsDefs1009"></defs><path id="SvgjsPath1010" d="M39.7173 20.2827C40.1006 20.665999999999997 40.1006 21.287599999999998 39.7173 21.6709L31.3882 30L39.7173 38.3291C40.1006 38.712399999999995 40.1006 39.333999999999996 39.7173 39.717299999999994C39.334 40.10059999999999 38.7124 40.10059999999999 38.329100000000004 39.717299999999994L30.000000000000004 31.388199999999994L21.670900000000003 39.717299999999994C21.287600000000005 40.10059999999999 20.666000000000004 40.10059999999999 20.282700000000002 39.717299999999994C19.899400000000004 39.333999999999996 19.899400000000004 38.712399999999995 20.282700000000002 38.3291L28.611800000000002 29.999999999999996L20.282700000000002 21.670899999999996C19.899400000000004 21.287599999999998 19.899400000000004 20.665999999999997 20.282700000000002 20.282699999999995C20.666 19.899399999999996 21.2876 19.899399999999996 21.670900000000003 20.282699999999995L30.000000000000004 28.611799999999995L38.329100000000004 20.282699999999995C38.7124 19.899399999999996 39.334 19.899399999999996 39.7173 20.282699999999995Z " fill="#ffffff" fill-opacity="1" transform="matrix(1,0,0,1,-19,-19)"></path></svg>