<?xml version="1.0" encoding="utf-8"?><svg xmlns="http://www.w3.org/2000/svg" xmlns:xlink="http://www.w3.org/1999/xlink"><symbol viewBox="0 0 48 32" id="checked" xmlns="http://www.w3.org/2000/svg"><title>Прямоугольник, скругл. углы 4</title><path d="M.452 13.452a1.532 1.532 0 0 1 2.168 0l14.88 14.88 11.785-11.785c.05-.07.105-.136.168-.199L45.349.452a1.532 1.532 0 1 1 2.168 2.168L34.718 15.418a1.61 1.61 0 0 1-.17.202L18.652 31.516a1.53 1.53 0 0 1-1.152.448 1.529 1.529 0 0 1-1.152-.448L.452 15.62a1.534 1.534 0 0 1 0-2.168z"/></symbol><symbol viewBox="0 0 10 7" id="chevron-arrow-down" xmlns="http://www.w3.org/2000/svg"><title>Прямоугольник, скругл. углы 3</title><path d="M1.296 1.296a1.039 1.039 0 0 1 1.469 0l2.24 2.24 2.241-2.242a1.032 1.032 0 0 1 1.46 1.46L5.785 5.675c-.12.12-.263.205-.415.253a1.038 1.038 0 0 1-1.135-.224L1.296 2.765a1.038 1.038 0 0 1 0-1.469z"/></symbol><symbol viewBox="0 0 22 22" id="close" xmlns="http://www.w3.org/2000/svg"><title>X</title><path d="M20.717 1.283a.982.982 0 0 1 0 1.388L12.388 11l8.33 8.33a.982.982 0 0 1-1.389 1.387L11 12.388l-8.33 8.33a.982.982 0 0 1-1.387-1.389L9.612 11l-8.33-8.33a.982.982 0 0 1 1.389-1.387L11 9.612l8.33-8.33a.982.982 0 0 1 1.387 0z"/></symbol></svg>