<?xml version="1.0" encoding="utf-8"?><svg width="16" height="5" viewBox="0 0 16 5" xmlns="http://www.w3.org/2000/svg" xmlns:xlink="http://www.w3.org/1999/xlink"><view id="----------------------------3" viewBox="0 0 8 5"/><svg width="8" height="5" viewBox="0 0 8 5" xmlns="http://www.w3.org/2000/svg"><defs><path id="aa" d="M277 100a1 1 0 0 1 1-1h6a1 1 0 0 1 1 1v2.97a1 1 0 0 1-1 1h-2.63a1 1 0 0 1-.34.06H278a1 1 0 0 1-1-1z"/></defs><use xlink:href="#aa" transform="translate(-277 -99)"/></svg><view id="arrow-down" viewBox="8 0 8 5"/><svg width="8" height="5" viewBox="0 0 8 5" x="8" xmlns="http://www.w3.org/2000/svg"><defs><path id="ba" d="M277 100a1 1 0 0 1 1-1h6a1 1 0 0 1 1 1v2.97a1 1 0 0 1-1 1h-2.63a1 1 0 0 1-.34.06H278a1 1 0 0 1-1-1z"/></defs><use xlink:href="#ba" transform="translate(-277 -99)"/></svg></svg>