<?xml version="1.0" encoding="utf-8"?><svg width="32" height="44" viewBox="0 0 32 44" xmlns="http://www.w3.org/2000/svg" xmlns:xlink="http://www.w3.org/1999/xlink"><view id="checked" viewBox="0 0 32 21.33"/><svg width="32" height="21.33" viewBox="0 0 48 32" xmlns="http://www.w3.org/2000/svg"><title>Прямоугольник, скругл. углы 4</title><path d="M.452 13.452a1.532 1.532 0 0 1 2.168 0l14.88 14.88 11.785-11.785c.05-.07.105-.136.168-.199L45.349.452a1.532 1.532 0 1 1 2.168 2.168L34.718 15.418a1.61 1.61 0 0 1-.17.202L18.652 31.516a1.53 1.53 0 0 1-1.152.448 1.529 1.529 0 0 1-1.152-.448L.452 15.62a1.534 1.534 0 0 1 0-2.168z"/></svg><view id="chevron-arrow-down" viewBox="22 21.33 10 7"/><svg width="10" height="7" viewBox="0 0 10 7" x="22" y="21.33" xmlns="http://www.w3.org/2000/svg"><title>Прямоугольник, скругл. углы 3</title><path d="M1.296 1.296a1.039 1.039 0 0 1 1.469 0l2.24 2.24 2.241-2.242a1.032 1.032 0 0 1 1.46 1.46L5.785 5.675c-.12.12-.263.205-.415.253a1.038 1.038 0 0 1-1.135-.224L1.296 2.765a1.038 1.038 0 0 1 0-1.469z"/></svg><view id="close" viewBox="0 21.33 22 22"/><svg width="22" height="22" viewBox="0 0 22 22" y="21.33" xmlns="http://www.w3.org/2000/svg"><title>X</title><path d="M20.717 1.283a.982.982 0 0 1 0 1.388L12.388 11l8.33 8.33a.982.982 0 0 1-1.389 1.387L11 12.388l-8.33 8.33a.982.982 0 0 1-1.387-1.389L9.612 11l-8.33-8.33a.982.982 0 0 1 1.389-1.387L11 9.612l8.33-8.33a.982.982 0 0 1 1.387 0z"/></svg></svg>